<svg width="36" height="28" viewBox="0 0 36 28" fill="none" xmlns="http://www.w3.org/2000/svg">
<g clip-path="url(#clip0_1693_4244)">
<path opacity="0.85" d="M4 28C1.79086 28 0 26.2091 0 24V16C0 8.63152 3.39341 2.95974 10.1802 0.547432C11.2258 0.175798 12.3531 0.706147 12.8493 1.69864C13.4687 2.9375 12.8791 4.41874 11.6841 5.11904C9.60963 6.33474 8.29625 7.81953 7.60436 9.57343C6.89502 11.3716 8.567 13 10.5 13C12.433 13 14 14.567 14 16.5V24C14 26.2091 12.2091 28 10 28H4ZM26 28C23.7909 28 22 26.2091 22 24V16C22 8.63152 25.3934 2.95974 32.1802 0.547432C33.2258 0.175798 34.3531 0.706147 34.8493 1.69864C35.4688 2.9375 34.8791 4.41874 33.6841 5.11904C31.6096 6.33474 30.2963 7.81953 29.6044 9.57343C28.895 11.3716 30.567 13 32.5 13C34.433 13 36 14.567 36 16.5V24C36 26.2091 34.2091 28 32 28H26Z" fill="#0DF1D9"/>
</g>
<defs>
<clipPath id="clip0_1693_4244">
<rect width="36" height="28" fill="white"/>
</clipPath>
</defs>
</svg>
