<svg width="83" height="36" viewBox="0 0 83 36" fill="none" xmlns="http://www.w3.org/2000/svg">
<path d="M8.9231 14.8325C9.48125 19.1045 12.5182 34.5605 18.9041 32.5765C26.2257 30.3845 28.5076 17.6325 29.2299 11.0725C29.7716 7.39251 35.1889 7.92051 34.9591 11.6485C34.7457 12.8325 34.4338 14.0005 34.1218 15.1685C32.1355 22.4005 27.9494 33.8405 19.2653 35.2005C10.3513 36.4325 9.13649 20.8165 8.9231 14.8325Z" fill="#0DF1D9"/>
<path d="M25.4876 18.7845C26.3084 14.3205 27.5068 2.92848 21.3835 1.80848C13.159 0.784479 6.72394 10.0485 3.4243 16.3205C2.98106 17.1845 1.88118 17.5365 0.994708 17.1045C0.0425729 16.6245 -0.28575 15.4725 0.272399 14.5925C4.55701 7.76045 12.486 -1.67952 21.7447 0.256478C28.9185 2.19248 26.8829 13.5205 25.4876 18.7845Z" fill="#CBCBCB"/>
<path d="M43.2835 32.9764V34.9604H36.6514C34.5665 34.9604 32.8921 33.3604 32.8921 31.3764V22.5444H34.9277V31.3764C34.9277 32.2564 35.7157 32.9764 36.6678 32.9764H43.2835Z" fill="#0DF1D9"/>
<path d="M52.0004 22.5286V24.5286H46.6487V34.9446H44.6131V24.5286H39.2615V22.5286H52.0004Z" fill="#0DF1D9"/>
<path d="M62.3267 31.0086L63.7552 34.9446H61.6043L60.4224 31.6806C59.9956 30.4806 59.2732 29.6966 58.6169 29.6966H56.0065C55.1037 29.6966 54.3649 30.4646 54.3649 31.3766V34.9446H52.3293V31.3766C52.3293 29.3606 53.9709 27.7286 56.0065 27.7286H60.9808C61.9 27.7286 62.6224 26.9926 62.6224 26.1126C62.6224 25.2326 61.8836 24.5286 60.9808 24.5286H53.3633V22.5286H60.9808C63.0328 22.5286 64.6907 24.1286 64.6907 26.1126C64.6907 27.8726 63.394 29.3286 61.6863 29.6646C61.9328 30.0486 62.1459 30.5126 62.3267 31.0086Z" fill="#0DF1D9"/>
<path d="M73.9002 24.5126C75.0822 24.5126 76.1002 25.1526 76.5761 26.2086L80.5489 34.9446H82.7653L78.4314 25.4726C77.5117 23.4726 75.9193 22.5286 73.9663 22.5286C72.1275 22.5286 70.4367 23.4086 69.4843 25.4726L65.1672 34.9446H67.3831L68.8607 31.6646H76.6417L75.821 29.6806H69.7307L71.3559 26.1926C71.8482 25.1526 72.7346 24.5126 73.9002 24.5126Z" fill="#0DF1D9"/>
</svg>
