<svg width="83" height="42" viewBox="0 0 83 42" fill="none" xmlns="http://www.w3.org/2000/svg">
<mask id="mask0_1633_1739" style="mask-type:luminance" maskUnits="userSpaceOnUse" x="0" y="0" width="83" height="42">
<path d="M83 0H0V42H83V0Z" fill="white"/>
</mask>
<g mask="url(#mask0_1633_1739)">
<path d="M14.0843 19.36C15.2629 19.36 16.2184 18.4287 16.2184 17.28C16.2184 16.1312 15.2629 15.2 14.0843 15.2C12.9057 15.2 11.9502 16.1312 11.9502 17.28C11.9502 18.4287 12.9057 19.36 14.0843 19.36Z" fill="#0DF1D9"/>
<path d="M21.1929 19.6799C22.5528 19.6799 23.6553 18.6054 23.6553 17.2799C23.6553 15.9544 22.5528 14.8799 21.1929 14.8799C19.8329 14.8799 18.7305 15.9544 18.7305 17.2799C18.7305 18.6054 19.8329 19.6799 21.1929 19.6799Z" fill="#0DF1D9"/>
<path d="M8.96191 14.8801C9.52006 19.1521 12.557 34.6081 18.9429 32.6241C26.2645 30.4321 28.5464 17.6801 29.2687 11.1201C29.8104 7.44012 35.2277 7.96812 34.9979 11.6961C34.7845 12.8801 34.4726 14.0481 34.1607 15.2161C32.1743 22.4481 27.9882 33.8881 19.3041 35.2481C10.3901 36.4801 9.17531 20.8641 8.96191 14.8801Z" fill="#0DF1D9"/>
<path d="M25.5266 18.8321C26.3475 14.3681 27.5458 2.97609 21.4226 1.85609C13.1981 0.832086 6.763 10.0961 3.46336 16.3681C3.02012 17.2321 1.92024 17.5841 1.03377 17.1521C0.0816354 16.6721 -0.246687 15.5201 0.311461 14.6401C4.59607 7.80806 12.525 -1.63191 21.7837 0.304085C28.9576 2.24009 26.922 13.5681 25.5266 18.8321Z" fill="#CBCBCB"/>
<path d="M43.3225 33.024V35.008H36.6904C34.6056 35.008 32.9312 33.408 32.9312 31.424V22.592H34.9668V31.424C34.9668 32.304 35.7547 33.024 36.7069 33.024H43.3225Z" fill="#0DF1D9"/>
<path d="M52.0397 22.5762V24.5762H46.688V34.9922H44.6524V24.5762H39.3008V22.5762H52.0397Z" fill="#0DF1D9"/>
<path d="M62.3661 31.0562L63.7945 34.9922H61.6436L60.4617 31.7282C60.0349 30.5282 59.3125 29.7442 58.6562 29.7442H56.0458C55.143 29.7442 54.4042 30.5122 54.4042 31.4242V34.9922H52.3687V31.4242C52.3687 29.4082 54.0102 27.7762 56.0458 27.7762H61.0201C61.9393 27.7762 62.6617 27.0402 62.6617 26.1602C62.6617 25.2802 61.9229 24.5762 61.0201 24.5762H53.4026V22.5762H61.0201C63.0721 22.5762 64.73 24.1762 64.73 26.1602C64.73 27.9202 63.4333 29.3762 61.7256 29.7122C61.9721 30.0962 62.1852 30.5602 62.3661 31.0562Z" fill="#0DF1D9"/>
<path d="M73.939 24.5602C75.121 24.5602 76.139 25.2002 76.615 26.2562L80.5877 34.9922H82.8041L78.4702 25.5202C77.5505 23.5202 75.9581 22.5762 74.0051 22.5762C72.1663 22.5762 70.4755 23.4562 69.5231 25.5202L65.2061 34.9922H67.422L68.8996 31.7122H76.6806L75.8598 29.7282H69.7695L71.3947 26.2402C71.887 25.2002 72.7734 24.5602 73.939 24.5602Z" fill="#0DF1D9"/>
</g>
</svg>
