<svg viewBox="0 0 30.9333 30.1558" fill="none" xmlns="http://www.w3.org/2000/svg" aria-hidden="true">
  <path d="M25.5629 5.78025C25.1394 4.03772 14.9962 0.674297 9.70925 4.25172C6.6094 6.34924 4.86275 8.02786 3.72259 12.9155C3.55769 15.6965 0.738342 15.4534 0.899367 12.69C0.967018 12.1921 1.08473 11.6968 1.20245 11.2014C1.95897 8.13216 4.40587 4.45611 8.00069 2.31898C14.0926 -1.30272 25.2554 3.31626 25.5629 5.78025Z" fill="#E2FBF9"/>
  <path d="M5.37035 24.3756C5.79391 26.1181 15.9371 29.4815 21.224 25.9041C24.3239 23.8066 26.0705 22.1279 27.2107 17.2403C27.3756 14.4593 30.1949 14.7025 30.0339 17.4658C29.9663 17.9637 29.8485 18.4591 29.7308 18.9544C28.9743 22.0236 26.5274 25.6997 22.9326 27.8368C16.8406 31.4585 5.67789 26.8395 5.37035 24.3756Z" fill="#01B1B1"/>
</svg>
