<svg width="32" height="32" viewBox="0 0 32 32" fill="none" xmlns="http://www.w3.org/2000/svg">
<mask id="path-1-inside-1_362_8236" fill="white">
<path d="M0 16C0 7.16344 7.16344 0 16 0C24.8366 0 32 7.16344 32 16C32 24.8366 24.8366 32 16 32C7.16344 32 0 24.8366 0 16Z"/>
</mask>
<path d="M0 16C0 7.16344 7.16344 0 16 0C24.8366 0 32 7.16344 32 16C32 24.8366 24.8366 32 16 32C7.16344 32 0 24.8366 0 16Z" fill="#0DF1D9" fill-opacity="0.1"/>
<path d="M0 16M32 16M32 16M0 16M16 0M32 16M16 32M0 16M16 32V31C7.71573 31 1 24.2843 1 16H0H-1C-1 25.3888 6.61116 33 16 33V32ZM32 16H31C31 24.2843 24.2843 31 16 31V32V33C25.3888 33 33 25.3888 33 16H32ZM16 0V1C24.2843 1 31 7.71573 31 16H32H33C33 6.61116 25.3888 -1 16 -1V0ZM16 0V-1C6.61116 -1 -1 6.61116 -1 16H0H1C1 7.71573 7.71573 1 16 1V0Z" fill="#0DF1D9" fill-opacity="0.4" mask="url(#path-1-inside-1_362_8236)"/>
<path d="M11.461 20H10.122C8.549 20 7.392 19.454 6.586 18.57C5.884 17.803 5.455 16.763 5.455 15.606C5.455 14.332 6.001 13.175 6.872 12.369C7.652 11.654 8.705 11.212 10.122 11.212H11.461C12.878 11.212 13.931 11.654 14.711 12.369C15.582 13.175 16.128 14.332 16.128 15.606C16.128 16.763 15.699 17.803 14.997 18.57C14.191 19.454 13.034 20 11.461 20ZM11.461 13.539H10.122C9.329 13.539 8.835 13.76 8.458 14.111C8.055 14.488 7.808 15.034 7.808 15.619C7.808 16.152 8.016 16.646 8.354 17.01C8.731 17.426 9.29 17.686 10.122 17.686H11.461C12.293 17.686 12.852 17.426 13.229 17.01C13.567 16.646 13.775 16.152 13.775 15.619C13.775 15.034 13.528 14.488 13.125 14.111C12.748 13.76 12.254 13.539 11.461 13.539ZM17.1365 11.212H24.7415C25.7165 11.212 26.2105 11.771 26.2105 12.499C26.2105 12.98 25.9765 13.305 25.5475 13.63L24.1175 14.67C24.0785 14.696 24.0655 14.748 24.0655 14.774C24.0655 14.826 24.0915 14.865 24.1565 14.878C25.5085 15.021 26.4445 15.801 26.4445 17.4C26.4445 18.765 25.4305 20 23.6365 20H17.1105V17.751H22.9345C23.5195 17.751 23.7275 17.439 23.7275 17.036C23.7275 16.633 23.5195 16.334 22.9345 16.334H21.1665C20.4775 16.334 20.3085 15.97 20.3085 15.567C20.3085 15.203 20.4905 15.008 20.8415 14.787L22.3625 13.825C22.4535 13.773 22.4925 13.734 22.4925 13.656C22.4925 13.591 22.4405 13.539 22.3495 13.539H17.1365V11.212Z" fill="#0DF1D9"/>
</svg>
