<svg width="32" height="32" viewBox="0 0 32 32" fill="none" xmlns="http://www.w3.org/2000/svg">
<mask id="path-1-inside-1_362_8272" fill="white">
<path d="M0 16C0 7.16344 7.16344 0 16 0C24.8366 0 32 7.16344 32 16C32 24.8366 24.8366 32 16 32C7.16344 32 0 24.8366 0 16Z"/>
</mask>
<path d="M0 16C0 7.16344 7.16344 0 16 0C24.8366 0 32 7.16344 32 16C32 24.8366 24.8366 32 16 32C7.16344 32 0 24.8366 0 16Z" fill="#0DF1D9" fill-opacity="0.1"/>
<path d="M0 16M32 16M32 16M0 16M16 0M32 16M16 32M0 16M16 32V31C7.71573 31 1 24.2843 1 16H0H-1C-1 25.3888 6.61116 33 16 33V32ZM32 16H31C31 24.2843 24.2843 31 16 31V32V33C25.3888 33 33 25.3888 33 16H32ZM16 0V1C24.2843 1 31 7.71573 31 16H32H33C33 6.61116 25.3888 -1 16 -1V0ZM16 0V-1C6.61116 -1 -1 6.61116 -1 16H0H1C1 7.71573 7.71573 1 16 1V0Z" fill="#0DF1D9" fill-opacity="0.4" mask="url(#path-1-inside-1_362_8272)"/>
<path d="M10.961 20H9.622C8.049 20 6.892 19.454 6.086 18.57C5.384 17.803 4.955 16.763 4.955 15.606C4.955 14.332 5.501 13.175 6.372 12.369C7.152 11.654 8.205 11.212 9.622 11.212H10.961C12.378 11.212 13.431 11.654 14.211 12.369C15.082 13.175 15.628 14.332 15.628 15.606C15.628 16.763 15.199 17.803 14.497 18.57C13.691 19.454 12.534 20 10.961 20ZM10.961 13.539H9.622C8.829 13.539 8.335 13.76 7.958 14.111C7.555 14.488 7.308 15.034 7.308 15.619C7.308 16.152 7.516 16.646 7.854 17.01C8.231 17.426 8.79 17.686 9.622 17.686H10.961C11.793 17.686 12.352 17.426 12.729 17.01C13.067 16.646 13.275 16.152 13.275 15.619C13.275 15.034 13.028 14.488 12.625 14.111C12.248 13.76 11.754 13.539 10.961 13.539ZM26.3267 20H23.9607V18.778H17.8377C17.1617 18.778 16.7717 18.609 16.5247 18.336C16.3037 18.089 16.1997 17.751 16.1997 17.374C16.1997 17.114 16.2647 16.841 16.4727 16.568C16.5897 16.412 16.7327 16.269 17.0577 16.035L23.3107 11.459C23.7527 11.134 24.1037 11.017 24.5327 11.017C24.9877 11.017 25.4687 11.147 25.8197 11.485C26.1187 11.771 26.3267 12.226 26.3267 13.032V20ZM23.9607 16.724V14.007C23.9607 13.838 23.8567 13.747 23.7657 13.747C23.6877 13.747 23.6487 13.76 23.5577 13.825L19.8917 16.438C19.8267 16.477 19.8007 16.516 19.8007 16.581C19.8007 16.659 19.8527 16.724 19.9437 16.724H23.9607Z" fill="#0DF1D9"/>
</svg>
