<svg width="32" height="32" viewBox="0 0 32 32" fill="none" xmlns="http://www.w3.org/2000/svg">
<mask id="path-1-inside-1_362_8222" fill="white">
<path d="M0 16C0 7.16344 7.16344 0 16 0C24.8366 0 32 7.16344 32 16C32 24.8366 24.8366 32 16 32C7.16344 32 0 24.8366 0 16Z"/>
</mask>
<path d="M0 16C0 7.16344 7.16344 0 16 0C24.8366 0 32 7.16344 32 16C32 24.8366 24.8366 32 16 32C7.16344 32 0 24.8366 0 16Z" fill="#0DF1D9" fill-opacity="0.1"/>
<path d="M0 16M32 16M32 16M0 16M16 0M32 16M16 32M0 16M16 32V31C7.71573 31 1 24.2843 1 16H0H-1C-1 25.3888 6.61116 33 16 33V32ZM32 16H31C31 24.2843 24.2843 31 16 31V32V33C25.3888 33 33 25.3888 33 16H32ZM16 0V1C24.2843 1 31 7.71573 31 16H32H33C33 6.61116 25.3888 -1 16 -1V0ZM16 0V-1C6.61116 -1 -1 6.61116 -1 16H0H1C1 7.71573 7.71573 1 16 1V0Z" fill="#0DF1D9" fill-opacity="0.4" mask="url(#path-1-inside-1_362_8222)"/>
<path d="M11.461 20H10.122C8.549 20 7.392 19.454 6.586 18.57C5.884 17.803 5.455 16.763 5.455 15.606C5.455 14.332 6.001 13.175 6.872 12.369C7.652 11.654 8.705 11.212 10.122 11.212H11.461C12.878 11.212 13.931 11.654 14.711 12.369C15.582 13.175 16.128 14.332 16.128 15.606C16.128 16.763 15.699 17.803 14.997 18.57C14.191 19.454 13.034 20 11.461 20ZM11.461 13.539H10.122C9.329 13.539 8.835 13.76 8.458 14.111C8.055 14.488 7.808 15.034 7.808 15.619C7.808 16.152 8.016 16.646 8.354 17.01C8.731 17.426 9.29 17.686 10.122 17.686H11.461C12.293 17.686 12.852 17.426 13.229 17.01C13.567 16.646 13.775 16.152 13.775 15.619C13.775 15.034 13.528 14.488 13.125 14.111C12.748 13.76 12.254 13.539 11.461 13.539ZM17.0195 13.539V11.212H23.6495C25.3915 11.212 26.4185 12.278 26.4185 13.708C26.4185 14.709 25.8075 15.632 24.6765 16.048L20.7115 17.491C20.6465 17.517 20.6075 17.569 20.6075 17.621C20.6075 17.699 20.6725 17.751 20.7505 17.751H26.3145V20H18.8005C17.4225 20 16.8375 19.129 16.8375 18.284C16.8375 17.686 17.0975 17.01 18.1245 16.594L23.2595 14.54C23.5585 14.423 23.7015 14.267 23.7015 14.02C23.7015 13.682 23.4935 13.539 23.1035 13.539H17.0195Z" fill="#0DF1D9"/>
</svg>
