<svg width="32" height="32" viewBox="0 0 32 32" fill="none" xmlns="http://www.w3.org/2000/svg">
<mask id="path-1-inside-1_362_8160" fill="white">
<path d="M0 16C0 7.16344 7.16344 0 16 0C24.8366 0 32 7.16344 32 16C32 24.8366 24.8366 32 16 32C7.16344 32 0 24.8366 0 16Z"/>
</mask>
<path d="M0 16C0 7.16344 7.16344 0 16 0C24.8366 0 32 7.16344 32 16C32 24.8366 24.8366 32 16 32C7.16344 32 0 24.8366 0 16Z" fill="#0DF1D9" fill-opacity="0.1"/>
<path d="M0 16M32 16M32 16M0 16M16 0M32 16M16 32M0 16M16 32V31C7.71573 31 1 24.2843 1 16H0H-1C-1 25.3888 6.61116 33 16 33V32ZM32 16H31C31 24.2843 24.2843 31 16 31V32V33C25.3888 33 33 25.3888 33 16H32ZM16 0V1C24.2843 1 31 7.71573 31 16H32H33C33 6.61116 25.3888 -1 16 -1V0ZM16 0V-1C6.61116 -1 -1 6.61116 -1 16H0H1C1 7.71573 7.71573 1 16 1V0Z" fill="#0DF1D9" fill-opacity="0.4" mask="url(#path-1-inside-1_362_8160)"/>
<path d="M13.961 20H12.622C11.049 20 9.892 19.454 9.086 18.57C8.384 17.803 7.955 16.763 7.955 15.606C7.955 14.332 8.501 13.175 9.372 12.369C10.152 11.654 11.205 11.212 12.622 11.212H13.961C15.378 11.212 16.431 11.654 17.211 12.369C18.082 13.175 18.628 14.332 18.628 15.606C18.628 16.763 18.199 17.803 17.497 18.57C16.691 19.454 15.534 20 13.961 20ZM13.961 13.539H12.622C11.829 13.539 11.335 13.76 10.958 14.111C10.555 14.488 10.308 15.034 10.308 15.619C10.308 16.152 10.516 16.646 10.854 17.01C11.231 17.426 11.79 17.686 12.622 17.686H13.961C14.793 17.686 15.352 17.426 15.729 17.01C16.067 16.646 16.275 16.152 16.275 15.619C16.275 15.034 16.028 14.488 15.625 14.111C15.248 13.76 14.754 13.539 13.961 13.539ZM19.1882 11.212H21.1382C22.7762 11.212 23.3092 11.914 23.3092 13.552V20H20.9692V13.903C20.9692 13.656 20.8652 13.539 20.6312 13.539H19.1882V11.212Z" fill="#0DF1D9"/>
</svg>
